Genre:Action/Drama 
Language:Min Nan | Mandarin
IMDb:http://www.imdb.com/title/tt1604900/
Subtitles:ENGLISH
Encoder: Tony2
...........................................
General
Complete name : Monga.2010.DVDRip.XviD.FEEL-FREE
Format : AVI
Format/Info : Audio Video Interleave
Format profile : OpenDML
File size : 1.32 GiB
Overall bit rate : 490 Kbps
............................................
Video
Format : xvid
Codec ID : xvid
Duration : 6h 25mn
Bit rate : 438 Kbps
Width : 704 pixels
Height : 304 pixels
Display aspect ratio : 2.35:1
Frame rate : 23.976 fps
Resolution : 24 bits
Bits/(Pixel*Frame) : 0.085
Stream size : 1.18 GiB (89%)
............................................
Audio
ID : 1
Format : MPEG Audio
Format version : Version 1
Format profile : Layer 3
Codec ID : 55
Codec ID/Hint : MP3
Duration : 2h 20mn
Bit rate mode : Constant
Bit rate : 128 Kbps
Channel(s) : 2 channels
Sampling rate : 48.0 KHz
Resolution : 16 bits
Stream size : 129 MiB (10%)
Alignment : Aligned on interleaves
Interleave, duration : 24 ms (0.58 video frame)
Interleave, preload duration : 24 ms
Writing library : LAME3.97
...........................................
Screenshots
 
http://postimg.com/image/17000/16548.jpg